<?xml version="1.0" encoding="UTF-8"?>
<svg id="Layer_1" data-name="Layer 1" xmlns="http://www.w3.org/2000/svg" viewBox="0 0 160 160">
  <defs>
    <style>
      .cls-1 {
        fill: #262626;
      }

      .cls-2 {
        font-family: Gloock-Regular, Gloock;
        font-size: 15.79px;
      }

      .cls-2, .cls-3 {
        fill: #eccf91;
      }
    </style>
  </defs>
  <ellipse class="cls-1" cx="80" cy="80" rx="72.41" ry="71"/>
  <g>
    <path class="cls-3" d="M89.07,108.46c-4.65,0-8.39-1.23-11.21-3.7-2.82-2.47-4.23-5.72-4.23-9.76,0-1.72.3-3.35.92-4.88.61-1.53,1.75-3.05,3.43-4.54,1.75-1.5,4.16-3.05,7.21-4.66,3.05-1.61,7.09-3.31,12.13-5.1l10.64-3.81v-8.41c0-4.26-.69-7.64-2.06-10.15-1.37-2.5-3.28-3.76-5.72-3.76-2.9.08-5.36,1.95-7.38,5.61-1.81,3.28-3.09,7.7-3.83,13.26-.13.94-1.17,1.47-2.01,1l-10.58-5.96c1.3-3.07,3.28-5.76,5.95-8.08,2.67-2.32,5.74-4.11,9.21-5.38,3.47-1.27,7.11-1.91,10.92-1.91,6.48,0,11.76,1.78,15.84,5.33,4.08,3.55,6.12,8.39,6.12,14.52v27.03c0,4.34,1.49,6.51,4.46,6.51,1.75,0,3.47-.93,5.15-2.8l.92.78c-1.98,2.62-4.39,4.75-7.21,6.39-3.41,1.98-6.71,2.77-9.88,2.36-1.76-.23-3.45-.93-4.86-1.99-2.68-2.01-4.32-4.87-4.93-8.56-3.74,3.74-7,6.45-9.78,8.13-2.79,1.68-5.85,2.52-9.21,2.52ZM97.65,101.51c1.68,0,3.3-.41,4.86-1.23,1.56-.82,3.34-2.17,5.32-4.04l.12-22.77-4.58,1.68c-3.89,1.42-6.86,2.86-8.92,4.32-2.06,1.46-2.62,1.65-3.42,3.44s6.62,1.8,6.62,4.12c0,3.22-8.04,8.14-6.4,10.2s3.88,4.28,6.4,4.28Z"/>
    <path class="cls-3" d="M61.12,106.44c-5.26,0-9.94-1.27-14.01-3.81-4.08-2.54-7.26-6.07-9.55-10.6-2.29-4.52-3.43-9.7-3.43-15.53s1.26-11.22,3.78-15.7c2.52-4.49,5.97-7.98,10.35-10.49,4.38-2.5,9.36-3.76,14.93-3.76,4.65,0,8.79.9,12.41,2.69,3.62,1.79,6.52,4.32,8.69,7.57,2.17,3.25,3.41,7.01,3.72,11.27l-.34,1.68h-37.99v.56c0,7.93,1.79,14.26,5.38,19.01,3.58,4.75,8.39,7.12,14.41,7.12,3.66,0,7.15-.88,10.47-2.64,3.32-1.76,6.01-4.13,8.07-7.12l.34.81c-1.3,3.81-2.63,6.7-5.38,9.62-2.75,2.92-5.99,5.2-9.72,6.84-3.74,1.64-7.78,2.47-12.13,2.47ZM49.8,68.09h23.22c0-5.91-10.38-4.98-12.33-8.65-1.94-3.66,4.74-11.21,1.23-11.21s-6.14,1.79-8.35,5.38c-2.21,3.59-3.47,8.41-3.78,14.47Z"/>
  </g>
  <text class="cls-2" transform="translate(35.83 107.37) rotate(-124.08) scale(.95 1.01) skewX(-.95)"><tspan x="0" y="0">E</tspan></text>
  <text class="cls-2" transform="translate(31.07 100.25) rotate(-115.61) scale(.95 1.01) skewX(-.72)"><tspan x="0" y="0">r</tspan></text>
  <text class="cls-2" transform="translate(28.32 94.87) rotate(-107.06) scale(.95 1.01) skewX(-.42)"><tspan x="0" y="0">h</tspan></text>
  <text class="cls-2" transform="translate(25.74 86.27) rotate(-97.81) scale(.95 1.01) skewX(-.06)"><tspan x="0" y="0">v</tspan></text>
  <text class="cls-2" transform="translate(24.8 80.13) rotate(-89.75) scale(.95 1.01) skewX(.27)"><tspan x="0" y="0">e</tspan></text>
  <text class="cls-2" transform="translate(24.82 72.85) rotate(-81.54) scale(.95 1.01) skewX(.57)"><tspan x="0" y="0">r</tspan></text>
  <text class="cls-2" transform="translate(25.72 66.55) rotate(-73.32) scale(.95 1.01) skewX(.83)"><tspan x="0" y="0">v</tspan></text>
  <text class="cls-2" transform="translate(27.65 60.1) rotate(-65.3) scale(.95 1) skewX(1.02)"><tspan x="0" y="0">s</tspan></text>
  <text class="cls-2" transform="translate(30 54.75) rotate(-56.63) scale(.95 1) skewX(1.14)"><tspan x="0" y="0">a</tspan></text>
  <text class="cls-2" transform="translate(33.69 48.72) rotate(-46.21) scale(.96 1) skewX(1.14)"><tspan x="0" y="0">w</tspan></text>
  <text class="cls-2" transform="translate(40.68 41.48) rotate(-35.38) scale(.96 .99) skewX(.98)"><tspan x="0" y="0">a</tspan></text>
  <text class="cls-2" transform="translate(47.02 36.99) rotate(-26.78) scale(.96 .99) skewX(.75)"><tspan x="0" y="0">r</tspan></text>
  <text class="cls-2" transform="translate(52.27 34.17) rotate(-18.3) scale(.96 .99) skewX(.46)"><tspan x="0" y="0">d</tspan></text>
</svg>