<?xml version="1.0" encoding="UTF-8"?>
<svg id="Layer_1" data-name="Layer 1" xmlns="http://www.w3.org/2000/svg" viewBox="0 0 160 160">
  <defs>
    <style>
      .cls-1 {
        fill: #fff;
      }
    </style>
  </defs>
  <path class="cls-1" d="M85.1,115.51c-5.23,0-9.43-1.41-12.61-4.25-3.17-2.83-4.76-6.56-4.76-11.19,0-1.97.34-3.84,1.03-5.6.69-1.76,1.97-3.49,3.86-5.21,1.97-1.71,4.67-3.49,8.1-5.34,3.43-1.84,7.98-3.8,13.64-5.85l11.96-4.37v-9.65c0-4.89-.77-8.77-2.32-11.64-1.55-2.87-3.69-4.31-6.43-4.31-3.26.09-6.03,2.23-8.3,6.43-2.04,3.76-3.47,8.83-4.3,15.21-.14,1.08-1.32,1.69-2.26,1.15l-11.9-6.83c1.46-3.52,3.69-6.6,6.69-9.26,3-2.66,6.45-4.72,10.36-6.18,3.9-1.46,7.99-2.19,12.29-2.19,7.29,0,13.23,2.04,17.82,6.11,4.59,4.07,6.89,9.63,6.89,16.66v31.01c0,4.98,1.67,7.46,5.02,7.46,1.97,0,3.9-1.07,5.79-3.22l1.03.9c-2.23,3-4.93,5.45-8.1,7.33-3.83,2.28-7.54,3.18-11.12,2.71-1.98-.26-3.88-1.07-5.46-2.28-3.01-2.31-4.86-5.58-5.55-9.82-4.2,4.29-7.87,7.4-11,9.33-3.13,1.93-6.58,2.89-10.36,2.89ZM94.75,107.53c1.89,0,3.71-.47,5.47-1.42,1.75-.94,3.75-2.49,5.98-4.63l.13-26.12-5.15,1.93c-4.37,1.63-7.72,3.28-10.03,4.95-2.32,1.67-2.94,1.89-3.85,3.95s7.44,2.06,7.44,4.72c0,3.69-9.04,9.33-7.2,11.69s4.37,4.91,7.2,4.91Z"/>
  <path class="cls-1" d="M53.67,113.19c-5.92,0-11.17-1.46-15.76-4.37-4.59-2.91-8.17-6.97-10.74-12.16-2.57-5.19-3.86-11.13-3.86-17.82s1.42-12.87,4.25-18.01c2.83-5.15,6.71-9.15,11.64-12.03,4.93-2.87,10.53-4.31,16.79-4.31,5.23,0,9.88,1.03,13.96,3.09,4.07,2.06,7.33,4.95,9.78,8.68,2.44,3.73,3.84,8.04,4.18,12.93l-.38,1.93h-42.72v.64c0,9.09,2.01,16.36,6.05,21.81,4.03,5.45,9.43,8.17,16.21,8.17,4.12,0,8.04-1.01,11.77-3.02,3.73-2.01,6.76-4.74,9.07-8.17l.39.93c-1.46,4.37-2.96,7.69-6.05,11.03-3.09,3.34-6.73,5.96-10.94,7.85-4.2,1.89-8.75,2.83-13.64,2.83ZM40.93,69.19h26.12c0-6.78-11.68-5.72-13.86-9.92-2.19-4.2,5.33-12.85,1.38-12.85s-6.9,2.06-9.39,6.18c-2.49,4.12-3.9,9.65-4.25,16.6Z"/>
</svg>