<?xml version="1.0" encoding="UTF-8"?>
<svg id="Layer_1" data-name="Layer 1" xmlns="http://www.w3.org/2000/svg" viewBox="0 0 160 160">
  <defs>
    <style>
      .cls-1 {
        fill: #f0e7de;
      }

      .cls-2 {
        fill: #d5cdbb;
      }
    </style>
  </defs>
  <g>
    <path class="cls-2" d="M84.9,115.97c-5.21,0-9.4-1.41-12.57-4.23-3.16-2.82-4.75-6.54-4.75-11.16,0-1.97.34-3.83,1.03-5.58.68-1.75,1.97-3.48,3.85-5.19,1.97-1.71,4.66-3.48,8.08-5.32,3.42-1.84,7.95-3.78,13.59-5.83l11.93-4.36v-9.62c0-4.87-.77-8.74-2.31-11.6-1.54-2.86-3.68-4.3-6.41-4.3-3.25.09-6.01,2.22-8.27,6.41-2.03,3.75-3.46,8.8-4.29,15.16-.14,1.08-1.31,1.68-2.25,1.14l-11.86-6.81c1.45-3.5,3.68-6.58,6.67-9.23,2.99-2.65,6.43-4.7,10.32-6.16,3.89-1.45,7.97-2.18,12.25-2.18,7.26,0,13.18,2.03,17.76,6.09,4.58,4.06,6.86,9.6,6.86,16.61v30.9c0,4.96,1.67,7.44,5,7.44,1.97,0,3.89-1.07,5.77-3.21l1.03.9c-2.22,2.99-4.92,5.43-8.08,7.31-3.82,2.27-7.52,3.17-11.08,2.7-1.97-.26-3.87-1.06-5.45-2.27-3-2.3-4.84-5.57-5.53-9.79-4.19,4.28-7.84,7.37-10.97,9.3-3.12,1.92-6.56,2.88-10.32,2.88ZM94.52,108.02c1.88,0,3.7-.47,5.45-1.41,1.75-.94,3.74-2.48,5.96-4.62l.13-26.03-5.13,1.92c-4.36,1.62-7.69,3.27-10,4.94-2.31,1.67-2.94,1.89-3.83,3.94s7.42,2.06,7.42,4.71c0,3.68-9.01,9.3-7.17,11.66s4.35,4.9,7.18,4.9Z"/>
    <path class="cls-2" d="M53.57,113.66c-5.9,0-11.14-1.45-15.71-4.36-4.57-2.91-8.14-6.95-10.71-12.12-2.56-5.17-3.85-11.09-3.85-17.76s1.41-12.82,4.23-17.95c2.82-5.13,6.69-9.12,11.61-11.99,4.91-2.86,10.49-4.3,16.74-4.3,5.21,0,9.85,1.03,13.91,3.08,4.06,2.05,7.31,4.94,9.75,8.66,2.44,3.72,3.82,8.01,4.17,12.89l-.38,1.92h-42.58v.64c0,9.06,2.01,16.31,6.03,21.74,4.02,5.43,9.4,8.14,16.16,8.14,4.1,0,8.01-1,11.73-3.01,3.72-2.01,6.73-4.72,9.04-8.14l.39.93c-1.45,4.36-2.95,7.66-6.03,11-3.08,3.33-6.71,5.94-10.9,7.82-4.19,1.88-8.72,2.82-13.59,2.82ZM40.88,69.81h26.03c0-6.75-11.64-5.7-13.82-9.89-2.18-4.19,5.31-12.81,1.38-12.81s-6.88,2.05-9.36,6.16c-2.48,4.1-3.89,9.62-4.23,16.54Z"/>
  </g>
  <g>
    <path class="cls-1" d="M87.36,114.82c-5.21,0-9.4-1.41-12.57-4.23-3.16-2.82-4.75-6.54-4.75-11.16,0-1.97.34-3.83,1.03-5.58.68-1.75,1.97-3.48,3.85-5.19,1.97-1.71,4.66-3.48,8.08-5.32,3.42-1.84,7.95-3.78,13.59-5.83l11.93-4.36v-9.62c0-4.87-.77-8.74-2.31-11.6-1.54-2.86-3.68-4.3-6.41-4.3-3.25.09-6.01,2.22-8.27,6.41-2.03,3.75-3.46,8.8-4.29,15.16-.14,1.08-1.31,1.68-2.25,1.14l-11.86-6.81c1.45-3.5,3.68-6.58,6.67-9.23,2.99-2.65,6.43-4.7,10.32-6.16,3.89-1.45,7.97-2.18,12.25-2.18,7.26,0,13.18,2.03,17.76,6.09,4.58,4.06,6.86,9.6,6.86,16.61v30.9c0,4.96,1.67,7.44,5,7.44,1.97,0,1.8.41,3.68-1.72l1.02.92c-2.22,2.99-2.82,3.92-5.98,5.8-3.82,2.27-7.52,3.17-11.08,2.7-1.97-.26-3.87-1.06-5.45-2.27-3-2.3-4.84-5.57-5.53-9.79-4.19,4.28-7.84,7.37-10.97,9.3-3.12,1.92-6.56,2.88-10.32,2.88ZM96.98,106.87c1.88,0,3.7-.47,5.45-1.41,1.75-.94,3.74-2.48,5.96-4.62l.13-26.03-5.13,1.92c-4.36,1.62-7.69,3.27-10,4.94-2.31,1.67-2.94,1.89-3.83,3.94s7.42,2.06,7.42,4.71c0,3.68-9.01,9.3-7.17,11.66s4.35,4.9,7.18,4.9Z"/>
    <path class="cls-1" d="M56.03,112.51c-5.9,0-11.14-1.45-15.71-4.36-4.57-2.91-8.14-6.95-10.71-12.12-2.56-5.17-3.85-11.09-3.85-17.76s1.41-12.82,4.23-17.95c2.82-5.13,6.69-9.12,11.61-11.99,4.91-2.86,10.49-4.3,16.74-4.3,5.21,0,9.85,1.03,13.91,3.08,4.06,2.05,7.31,4.94,9.75,8.66,2.44,3.72,3.82,8.01,4.17,12.89l-.38,1.92h-42.58v.64c0,9.06,2.01,16.31,6.03,21.74,4.02,5.43,9.4,8.14,16.16,8.14,4.1,0,8.01-1,11.73-3.01,3.72-2.01,6.73-4.72,9.04-8.14l.39.93c-1.45,4.36-2.95,7.66-6.03,11-3.08,3.33-6.71,5.94-10.9,7.82-4.19,1.88-8.72,2.82-13.59,2.82ZM43.34,68.65h26.03c0-6.75-11.64-5.7-13.82-9.89-2.18-4.19,5.31-12.81,1.38-12.81s-6.88,2.05-9.36,6.16c-2.48,4.1-3.89,9.62-4.23,16.54Z"/>
  </g>
</svg>